<mxfile host="Electron" modified="2023-11-21T09:02:06.737Z" agent="Mozilla/5.0 (Windows NT 10.0; Win64; x64) AppleWebKit/537.36 (KHTML, like Gecko) draw.io/22.1.2 Chrome/114.0.5735.289 Electron/25.9.4 Safari/537.36" etag="Kvjhjc-EiRAVmZlkUBt6" version="22.1.2" type="device">
  <diagram name="Page-1" id="yG7yiQek93r74q9vae4S">
    <mxGraphModel dx="1098" dy="828" grid="1" gridSize="10" guides="1" tooltips="1" connect="1" arrows="1" fold="1" page="1" pageScale="1" pageWidth="827" pageHeight="1169" math="0" shadow="0">
      <root>
        <mxCell id="0" />
        <mxCell id="1" parent="0" />
        <mxCell id="yu9ZhQBLfu7ctgf4SmUy-1" value="Saisisez l&#39;age de l&#39;enfant" style="ellipse;whiteSpace=wrap;html=1;" vertex="1" parent="1">
          <mxGeometry x="360" y="40" width="120" height="80" as="geometry" />
        </mxCell>
        <mxCell id="yu9ZhQBLfu7ctgf4SmUy-3" value="Si Age = 6 ou =7" style="rhombus;whiteSpace=wrap;html=1;fontColor=#000000;fillColor=#ffffc0;strokeColor=#ff0000;" vertex="1" parent="1">
          <mxGeometry x="370" y="160" width="100" height="60" as="geometry" />
        </mxCell>
        <mxCell id="yu9ZhQBLfu7ctgf4SmUy-9" value="Si Age =8 ou =9" style="rhombus;whiteSpace=wrap;html=1;fontColor=#000000;fillColor=#ffffc0;strokeColor=#ff0000;" vertex="1" parent="1">
          <mxGeometry x="470" y="250" width="110" height="60" as="geometry" />
        </mxCell>
        <mxCell id="yu9ZhQBLfu7ctgf4SmUy-12" value="Si age = ou &amp;gt; 12" style="rhombus;whiteSpace=wrap;html=1;fontColor=#000000;fillColor=#ffffc0;strokeColor=#ff0000;" vertex="1" parent="1">
          <mxGeometry x="690" y="410" width="110" height="60" as="geometry" />
        </mxCell>
        <mxCell id="yu9ZhQBLfu7ctgf4SmUy-15" value="Si age =10 ou =11" style="rhombus;whiteSpace=wrap;html=1;fontColor=#000000;fillColor=#ffffc0;strokeColor=#ff0000;" vertex="1" parent="1">
          <mxGeometry x="580" y="330" width="110" height="60" as="geometry" />
        </mxCell>
        <mxCell id="yu9ZhQBLfu7ctgf4SmUy-19" value="" style="endArrow=classic;html=1;rounded=0;entryX=0.5;entryY=0;entryDx=0;entryDy=0;" edge="1" parent="1" target="yu9ZhQBLfu7ctgf4SmUy-3">
          <mxGeometry width="50" height="50" relative="1" as="geometry">
            <mxPoint x="420" y="120" as="sourcePoint" />
            <mxPoint x="370" y="170" as="targetPoint" />
          </mxGeometry>
        </mxCell>
        <mxCell id="yu9ZhQBLfu7ctgf4SmUy-23" style="edgeStyle=orthogonalEdgeStyle;rounded=0;orthogonalLoop=1;jettySize=auto;html=1;exitX=0.5;exitY=1;exitDx=0;exitDy=0;" edge="1" parent="1" source="yu9ZhQBLfu7ctgf4SmUy-15" target="yu9ZhQBLfu7ctgf4SmUy-15">
          <mxGeometry relative="1" as="geometry" />
        </mxCell>
        <mxCell id="yu9ZhQBLfu7ctgf4SmUy-28" value="Votre Enfant fait partie des Poussins" style="ellipse;whiteSpace=wrap;html=1;" vertex="1" parent="1">
          <mxGeometry x="260" y="240" width="120" height="80" as="geometry" />
        </mxCell>
        <mxCell id="yu9ZhQBLfu7ctgf4SmUy-29" value="Votre Enfant fait partie des Cadets" style="ellipse;whiteSpace=wrap;html=1;" vertex="1" parent="1">
          <mxGeometry x="685" y="530" width="120" height="80" as="geometry" />
        </mxCell>
        <mxCell id="yu9ZhQBLfu7ctgf4SmUy-30" value="Votre Enfant fait partie des Minimes" style="ellipse;whiteSpace=wrap;html=1;" vertex="1" parent="1">
          <mxGeometry x="470" y="410" width="120" height="80" as="geometry" />
        </mxCell>
        <mxCell id="yu9ZhQBLfu7ctgf4SmUy-31" value="Votre Enfant fait&amp;nbsp; partie des Pupilles" style="ellipse;whiteSpace=wrap;html=1;" vertex="1" parent="1">
          <mxGeometry x="360" y="330" width="120" height="60" as="geometry" />
        </mxCell>
        <mxCell id="yu9ZhQBLfu7ctgf4SmUy-36" value="Fin de l&#39;algorithme" style="ellipse;whiteSpace=wrap;html=1;" vertex="1" parent="1">
          <mxGeometry x="260" y="545" width="120" height="80" as="geometry" />
        </mxCell>
        <mxCell id="yu9ZhQBLfu7ctgf4SmUy-54" value="" style="endArrow=classic;html=1;rounded=0;" edge="1" parent="1">
          <mxGeometry width="50" height="50" relative="1" as="geometry">
            <mxPoint x="370" y="190" as="sourcePoint" />
            <mxPoint x="320" y="240" as="targetPoint" />
            <Array as="points">
              <mxPoint x="320" y="190" />
            </Array>
          </mxGeometry>
        </mxCell>
        <mxCell id="yu9ZhQBLfu7ctgf4SmUy-56" value="Oui" style="text;html=1;strokeColor=none;fillColor=none;align=center;verticalAlign=middle;whiteSpace=wrap;rounded=0;" vertex="1" parent="1">
          <mxGeometry x="320" y="170" width="60" height="30" as="geometry" />
        </mxCell>
        <mxCell id="yu9ZhQBLfu7ctgf4SmUy-58" value="Non" style="text;html=1;strokeColor=none;fillColor=none;align=center;verticalAlign=middle;whiteSpace=wrap;rounded=0;" vertex="1" parent="1">
          <mxGeometry x="470" y="170" width="60" height="30" as="geometry" />
        </mxCell>
        <mxCell id="yu9ZhQBLfu7ctgf4SmUy-59" value="" style="endArrow=classic;html=1;rounded=0;entryX=0.5;entryY=0;entryDx=0;entryDy=0;exitX=1;exitY=0.5;exitDx=0;exitDy=0;exitPerimeter=0;" edge="1" parent="1" source="yu9ZhQBLfu7ctgf4SmUy-3" target="yu9ZhQBLfu7ctgf4SmUy-9">
          <mxGeometry width="50" height="50" relative="1" as="geometry">
            <mxPoint x="475" y="190" as="sourcePoint" />
            <mxPoint x="525" y="240" as="targetPoint" />
            <Array as="points">
              <mxPoint x="525" y="190" />
            </Array>
          </mxGeometry>
        </mxCell>
        <mxCell id="yu9ZhQBLfu7ctgf4SmUy-61" value="" style="endArrow=classic;html=1;rounded=0;" edge="1" parent="1">
          <mxGeometry width="50" height="50" relative="1" as="geometry">
            <mxPoint x="470" y="280" as="sourcePoint" />
            <mxPoint x="420" y="330" as="targetPoint" />
            <Array as="points">
              <mxPoint x="420" y="280" />
            </Array>
          </mxGeometry>
        </mxCell>
        <mxCell id="yu9ZhQBLfu7ctgf4SmUy-62" value="Oui" style="text;html=1;strokeColor=none;fillColor=none;align=center;verticalAlign=middle;whiteSpace=wrap;rounded=0;" vertex="1" parent="1">
          <mxGeometry x="420" y="260" width="60" height="30" as="geometry" />
        </mxCell>
        <mxCell id="yu9ZhQBLfu7ctgf4SmUy-63" value="Non" style="text;html=1;strokeColor=none;fillColor=none;align=center;verticalAlign=middle;whiteSpace=wrap;rounded=0;" vertex="1" parent="1">
          <mxGeometry x="580" y="260" width="60" height="30" as="geometry" />
        </mxCell>
        <mxCell id="yu9ZhQBLfu7ctgf4SmUy-64" value="" style="endArrow=classic;html=1;rounded=0;exitX=1;exitY=0.5;exitDx=0;exitDy=0;exitPerimeter=0;" edge="1" parent="1">
          <mxGeometry width="50" height="50" relative="1" as="geometry">
            <mxPoint x="580" y="280" as="sourcePoint" />
            <mxPoint x="635" y="330" as="targetPoint" />
            <Array as="points">
              <mxPoint x="635" y="280" />
            </Array>
          </mxGeometry>
        </mxCell>
        <mxCell id="yu9ZhQBLfu7ctgf4SmUy-65" value="" style="endArrow=classic;html=1;rounded=0;" edge="1" parent="1">
          <mxGeometry width="50" height="50" relative="1" as="geometry">
            <mxPoint x="580" y="360" as="sourcePoint" />
            <mxPoint x="530" y="410" as="targetPoint" />
            <Array as="points">
              <mxPoint x="530" y="360" />
            </Array>
          </mxGeometry>
        </mxCell>
        <mxCell id="yu9ZhQBLfu7ctgf4SmUy-66" value="Oui" style="text;html=1;strokeColor=none;fillColor=none;align=center;verticalAlign=middle;whiteSpace=wrap;rounded=0;" vertex="1" parent="1">
          <mxGeometry x="530" y="340" width="60" height="30" as="geometry" />
        </mxCell>
        <mxCell id="yu9ZhQBLfu7ctgf4SmUy-67" value="Non" style="text;html=1;strokeColor=none;fillColor=none;align=center;verticalAlign=middle;whiteSpace=wrap;rounded=0;" vertex="1" parent="1">
          <mxGeometry x="690" y="340" width="60" height="30" as="geometry" />
        </mxCell>
        <mxCell id="yu9ZhQBLfu7ctgf4SmUy-68" value="" style="endArrow=classic;html=1;rounded=0;exitX=1;exitY=0.5;exitDx=0;exitDy=0;exitPerimeter=0;" edge="1" parent="1">
          <mxGeometry width="50" height="50" relative="1" as="geometry">
            <mxPoint x="690" y="360" as="sourcePoint" />
            <mxPoint x="745" y="410" as="targetPoint" />
            <Array as="points">
              <mxPoint x="745" y="360" />
            </Array>
          </mxGeometry>
        </mxCell>
        <mxCell id="yu9ZhQBLfu7ctgf4SmUy-69" value="" style="endArrow=classic;html=1;rounded=0;" edge="1" parent="1">
          <mxGeometry width="50" height="50" relative="1" as="geometry">
            <mxPoint x="744.5" y="470" as="sourcePoint" />
            <mxPoint x="744.5" y="530" as="targetPoint" />
          </mxGeometry>
        </mxCell>
        <mxCell id="yu9ZhQBLfu7ctgf4SmUy-70" value="" style="endArrow=classic;html=1;rounded=0;entryX=0.5;entryY=0;entryDx=0;entryDy=0;" edge="1" parent="1" target="yu9ZhQBLfu7ctgf4SmUy-36">
          <mxGeometry width="50" height="50" relative="1" as="geometry">
            <mxPoint x="320" y="320" as="sourcePoint" />
            <mxPoint x="320" y="390" as="targetPoint" />
          </mxGeometry>
        </mxCell>
        <mxCell id="yu9ZhQBLfu7ctgf4SmUy-72" value="" style="endArrow=classic;html=1;rounded=0;exitX=0.583;exitY=0.983;exitDx=0;exitDy=0;exitPerimeter=0;" edge="1" parent="1" source="yu9ZhQBLfu7ctgf4SmUy-31">
          <mxGeometry width="50" height="50" relative="1" as="geometry">
            <mxPoint x="430" y="535" as="sourcePoint" />
            <mxPoint x="380" y="585" as="targetPoint" />
            <Array as="points">
              <mxPoint x="430" y="585" />
            </Array>
          </mxGeometry>
        </mxCell>
        <mxCell id="yu9ZhQBLfu7ctgf4SmUy-73" value="" style="endArrow=classic;html=1;rounded=0;entryX=1;entryY=0.5;entryDx=0;entryDy=0;exitX=0.425;exitY=0.975;exitDx=0;exitDy=0;exitPerimeter=0;" edge="1" parent="1" source="yu9ZhQBLfu7ctgf4SmUy-30" target="yu9ZhQBLfu7ctgf4SmUy-36">
          <mxGeometry width="50" height="50" relative="1" as="geometry">
            <mxPoint x="520" y="500" as="sourcePoint" />
            <mxPoint x="425" y="585" as="targetPoint" />
            <Array as="points">
              <mxPoint x="520" y="585" />
            </Array>
          </mxGeometry>
        </mxCell>
        <mxCell id="yu9ZhQBLfu7ctgf4SmUy-74" value="" style="endArrow=classic;html=1;rounded=0;exitX=0.033;exitY=0.675;exitDx=0;exitDy=0;exitPerimeter=0;entryX=1;entryY=0.5;entryDx=0;entryDy=0;" edge="1" parent="1" source="yu9ZhQBLfu7ctgf4SmUy-29" target="yu9ZhQBLfu7ctgf4SmUy-36">
          <mxGeometry width="50" height="50" relative="1" as="geometry">
            <mxPoint x="660" y="584" as="sourcePoint" />
            <mxPoint x="560" y="584" as="targetPoint" />
            <Array as="points">
              <mxPoint x="610" y="584" />
            </Array>
          </mxGeometry>
        </mxCell>
      </root>
    </mxGraphModel>
  </diagram>
</mxfile>
